<?xml version="1.0" encoding="UTF-8" standalone="no"?>
<!DOCTYPE svg PUBLIC "-//W3C//DTD SVG 1.1//EN"
 "http://www.w3.org/Graphics/SVG/1.1/DTD/svg11.dtd">
<!-- Generated by graphviz version 13.0.1 (20250615.1724)
 -->
<!-- Pages: 1 -->
<svg width="206pt" height="116pt"
 viewBox="0.00 0.00 206.00 116.00" xmlns="http://www.w3.org/2000/svg" xmlns:xlink="http://www.w3.org/1999/xlink">
<g id="graph0" class="graph" transform="scale(1 1) rotate(0) translate(4 112)">
<polygon fill="white" stroke="none" points="-4,4 -4,-112 202,-112 202,4 -4,4"/>
<!-- ref -->
<g id="node1" class="node">
<title>ref</title>
<polygon fill="#bfefff" stroke="black" points="126,-108 72,-108 72,-72 126,-72 126,-108"/>
<text xml:space="preserve" text-anchor="middle" x="99" y="-84.95" font-family="Times New Roman,serif" font-size="14.00">ref</text>
</g>
<!-- refbast -->
<g id="node2" class="node">
<title>refbast</title>
<polygon fill="none" stroke="black" points="54,-36 0,-36 0,0 54,0 54,-36"/>
<text xml:space="preserve" text-anchor="middle" x="27" y="-12.95" font-family="Times New Roman,serif" font-size="14.00">refbast</text>
</g>
<!-- refbast&#45;&#45;ref -->
<g id="edge1" class="edge">
<title>refbast&#45;&#45;ref</title>
<path fill="none" stroke="black" d="M44.8,-36.3C55.87,-47.07 70.07,-60.88 81.16,-71.65"/>
</g>
<!-- refnas -->
<g id="node3" class="node">
<title>refnas</title>
<polygon fill="none" stroke="black" points="126,-36 72,-36 72,0 126,0 126,-36"/>
<text xml:space="preserve" text-anchor="middle" x="99" y="-12.95" font-family="Times New Roman,serif" font-size="14.00">refnas</text>
</g>
<!-- refnas&#45;&#45;ref -->
<g id="edge2" class="edge">
<title>refnas&#45;&#45;ref</title>
<path fill="none" stroke="black" d="M99,-36.3C99,-47.15 99,-61.08 99,-71.9"/>
</g>
<!-- refeel -->
<g id="node4" class="node">
<title>refeel</title>
<polygon fill="none" stroke="black" points="198,-36 144,-36 144,0 198,0 198,-36"/>
<text xml:space="preserve" text-anchor="middle" x="171" y="-12.95" font-family="Times New Roman,serif" font-size="14.00">refeel</text>
</g>
<!-- refeel&#45;&#45;ref -->
<g id="edge3" class="edge">
<title>refeel&#45;&#45;ref</title>
<path fill="none" stroke="black" d="M153.2,-36.3C142.13,-47.07 127.93,-60.88 116.84,-71.65"/>
</g>
</g>
</svg>
