<?xml version="1.0" encoding="UTF-8" standalone="no"?>
<!DOCTYPE svg PUBLIC "-//W3C//DTD SVG 1.1//EN"
 "http://www.w3.org/Graphics/SVG/1.1/DTD/svg11.dtd">
<!-- Generated by graphviz version 13.0.1 (20250615.1724)
 -->
<!-- Pages: 1 -->
<svg width="390pt" height="265pt"
 viewBox="0.00 0.00 390.00 265.00" xmlns="http://www.w3.org/2000/svg" xmlns:xlink="http://www.w3.org/1999/xlink">
<g id="graph0" class="graph" transform="scale(1 1) rotate(0) translate(4 261)">
<polygon fill="white" stroke="none" points="-4,4 -4,-261 386.25,-261 386.25,4 -4,4"/>
<g id="clust1" class="cluster">
<title>clusterZ</title>
<polygon fill="none" stroke="lightgray" points="0,-8 0,-249 380,-249 380,-8 0,-8"/>
<text xml:space="preserve" text-anchor="middle" x="190" y="-231.7" font-family="Times New Roman,serif" font-size="14.00" fill="lightgray">Stock</text>
</g>
<g id="clust2" class="cluster">
<title>clusterA</title>
<polygon fill="none" stroke="lightgray" points="8,-16 8,-216 243.5,-216 243.5,-16 8,-16"/>
<text xml:space="preserve" text-anchor="middle" x="125.75" y="-198.7" font-family="Times New Roman,serif" font-size="14.00" fill="lightgray">Inland Stock</text>
</g>
<g id="clust3" class="cluster">
<title>clusterB</title>
<polygon fill="none" stroke="lightgray" points="16,-24 16,-183 139,-183 139,-24 16,-24"/>
<text xml:space="preserve" text-anchor="middle" x="77.5" y="-165.7" font-family="Times New Roman,serif" font-size="14.00" fill="lightgray">Assessment_unit</text>
</g>
<g id="clust4" class="cluster">
<title>clusterC</title>
<polygon fill="none" stroke="lightgray" points="24,-32 24,-150 131,-150 131,-32 24,-32"/>
<text xml:space="preserve" text-anchor="middle" x="77.5" y="-132.7" font-family="Times New Roman,serif" font-size="14.00" fill="lightgray">River</text>
</g>
<g id="clust5" class="cluster">
<title>clusterD</title>
<polygon fill="none" stroke="lightgray" points="32,-40 32,-117 123,-117 123,-40 32,-40"/>
<text xml:space="preserve" text-anchor="middle" x="77.5" y="-99.7" font-family="Times New Roman,serif" font-size="14.00" fill="lightgray">River_section</text>
</g>
<g id="clust6" class="cluster">
<title>clusterE</title>
<polygon fill="none" stroke="firebrick" stroke-dasharray="5,2" points="163,-30 163,-127 235.5,-127 235.5,-30 163,-30"/>
<text xml:space="preserve" text-anchor="middle" x="199.25" y="-109.7" font-family="Times New Roman,serif" font-size="14.00" fill="firebrick">Country</text>
</g>
<g id="clust7" class="cluster">
<title>clusterF</title>
<polygon fill="none" stroke="lightgray" points="259.5,-24 259.5,-183 372,-183 372,-24 259.5,-24"/>
<text xml:space="preserve" text-anchor="middle" x="315.75" y="-165.7" font-family="Times New Roman,serif" font-size="14.00" fill="lightgray">Marine Stock</text>
</g>
<g id="clust8" class="cluster">
<title>clusterG</title>
<polygon fill="none" stroke="lightgray" points="267.5,-32 267.5,-150 364,-150 364,-32 267.5,-32"/>
<text xml:space="preserve" text-anchor="middle" x="315.75" y="-132.7" font-family="Times New Roman,serif" font-size="14.00" fill="lightgray">Division</text>
</g>
<g id="clust9" class="cluster">
<title>clusterH</title>
<polygon fill="none" stroke="lightgray" points="275.5,-40 275.5,-117 356,-117 356,-40 275.5,-40"/>
<text xml:space="preserve" text-anchor="middle" x="315.75" y="-99.7" font-family="Times New Roman,serif" font-size="14.00" fill="lightgray">Subdivision</text>
</g>
<!-- section -->
<!-- Fishing -->
<!-- section&#45;&gt;Fishing -->
<!-- here -->
<!-- Fishing&#45;&gt;here -->
</g>
</svg>
