<?xml version="1.0" encoding="UTF-8" standalone="no"?>
<!DOCTYPE svg PUBLIC "-//W3C//DTD SVG 1.1//EN"
 "http://www.w3.org/Graphics/SVG/1.1/DTD/svg11.dtd">
<!-- Generated by graphviz version 13.0.1 (20250615.1724)
 -->
<!-- Pages: 1 -->
<svg width="468pt" height="265pt"
 viewBox="0.00 0.00 468.00 265.00" xmlns="http://www.w3.org/2000/svg" xmlns:xlink="http://www.w3.org/1999/xlink">
<g id="graph0" class="graph" transform="scale(1 1) rotate(0) translate(4 261)">
<polygon fill="white" stroke="none" points="-4,4 -4,-261 464.36,-261 464.36,4 -4,4"/>
<g id="clust1" class="cluster">
<title>clusterZ</title>
<polygon fill="none" stroke="black" points="0,-8 0,-249 460.36,-249 460.36,-8 0,-8"/>
<text xml:space="preserve" text-anchor="middle" x="230.18" y="-231.7" font-family="Times New Roman,serif" font-size="14.00">Stock</text>
</g>
<g id="clust2" class="cluster">
<title>clusterA</title>
<polygon fill="none" stroke="green" points="8,-16 8,-216 280.11,-216 280.11,-16 8,-16"/>
<text xml:space="preserve" text-anchor="middle" x="144.06" y="-198.7" font-family="Times New Roman,serif" font-size="14.00" fill="green">Inland Stock</text>
</g>
<g id="clust3" class="cluster">
<title>clusterB</title>
<polygon fill="none" stroke="#00cd00" points="16,-24 16,-183 139,-183 139,-24 16,-24"/>
<text xml:space="preserve" text-anchor="middle" x="77.5" y="-165.7" font-family="Times New Roman,serif" font-size="14.00" fill="#00cd00">Assessment_unit</text>
</g>
<g id="clust4" class="cluster">
<title>clusterC</title>
<polygon fill="none" stroke="#00ee00" points="24,-32 24,-150 131,-150 131,-32 24,-32"/>
<text xml:space="preserve" text-anchor="middle" x="77.5" y="-132.7" font-family="Times New Roman,serif" font-size="14.00" fill="#00ee00">River</text>
</g>
<g id="clust5" class="cluster">
<title>clusterD</title>
<polygon fill="none" stroke="#00ff00" points="32,-40 32,-117 123,-117 123,-40 32,-40"/>
<text xml:space="preserve" text-anchor="middle" x="77.5" y="-99.7" font-family="Times New Roman,serif" font-size="14.00" fill="#00ff00">River_section</text>
</g>
<g id="clust6" class="cluster">
<title>clusterE</title>
<polygon fill="none" stroke="firebrick" stroke-dasharray="5,2" points="163,-32 163,-150 272.11,-150 272.11,-32 163,-32"/>
<text xml:space="preserve" text-anchor="middle" x="217.56" y="-132.7" font-family="Times New Roman,serif" font-size="14.00" fill="firebrick">Country</text>
</g>
<g id="clust7" class="cluster">
<title>clusterK</title>
<polygon fill="none" stroke="#ee2c2c" stroke-dasharray="5,2" points="171,-40 171,-117 264.11,-117 264.11,-40 171,-40"/>
<text xml:space="preserve" text-anchor="middle" x="217.56" y="-99.7" font-family="Times New Roman,serif" font-size="14.00" fill="#ee2c2c">EMU</text>
</g>
<g id="clust8" class="cluster">
<title>clusterF</title>
<polygon fill="none" stroke="#27408b" points="296.11,-16 296.11,-216 452.36,-216 452.36,-16 296.11,-16"/>
<text xml:space="preserve" text-anchor="middle" x="374.24" y="-198.7" font-family="Times New Roman,serif" font-size="14.00" fill="#27408b">Marine Stock</text>
</g>
<g id="clust9" class="cluster">
<title>clusterG</title>
<polygon fill="none" stroke="#3a5fcd" points="304.11,-24 304.11,-183 444.36,-183 444.36,-24 304.11,-24"/>
<text xml:space="preserve" text-anchor="middle" x="374.24" y="-165.7" font-family="Times New Roman,serif" font-size="14.00" fill="#3a5fcd">Subarea</text>
</g>
<g id="clust10" class="cluster">
<title>clusterH</title>
<polygon fill="none" stroke="#436eee" points="312.11,-32 312.11,-150 436.36,-150 436.36,-32 312.11,-32"/>
<text xml:space="preserve" text-anchor="middle" x="374.24" y="-132.7" font-family="Times New Roman,serif" font-size="14.00" fill="#436eee">Division</text>
</g>
<g id="clust11" class="cluster">
<title>clusterI</title>
<polygon fill="none" stroke="royalblue" points="320.11,-40 320.11,-117 428.36,-117 428.36,-40 320.11,-40"/>
<text xml:space="preserve" text-anchor="middle" x="374.24" y="-99.7" font-family="Times New Roman,serif" font-size="14.00" fill="royalblue">Assessment_unit</text>
</g>
<!-- section -->
<!-- Fishing -->
<!-- section&#45;&gt;Fishing -->
<!-- here -->
<!-- Fishing&#45;&gt;here -->
</g>
</svg>
